<svg xmlns="http://www.w3.org/2000/svg" version="1.1" xmlns:xlink="http://www.w3.org/1999/xlink" width="512" height="512" x="0" y="0" viewBox="0 0 512 512" style="enable-background:new 0 0 512 512" xml:space="preserve" class=""><g><path fill="#ff6b6b" d="M85 512H15c-8.284 0-15-6.716-15-15v-70c0-85.467 69.532-155 155-155h70c8.284 0 15 6.716 15 15v70c0 85.467-69.532 155-155 155z" opacity="1" data-original="#ff6b6b" class=""></path><path fill="#3b9f0b" d="M357 240h-70c-8.284 0-15-6.716-15-15v-70C272 69.533 341.532 0 427 0h70c8.284 0 15 6.716 15 15v70c0 85.467-69.532 155-155 155z" opacity="1" data-original="#afea93" class=""></path><path fill="#70d840" d="M287 240h70c85.468 0 155-69.533 155-155V15c0-4.142-1.679-7.892-4.393-10.607L276.393 235.607A14.957 14.957 0 0 0 287 240z" opacity="1" data-original="#70d840" class=""></path><path fill="#f90024" d="M15 512h70c85.468 0 155-69.533 155-155v-70c0-4.142-1.679-7.892-4.393-10.607L4.393 507.607A14.957 14.957 0 0 0 15 512z" opacity="1" data-original="#f90024" class=""></path><path fill="#ffdd52" d="M497 512h-70c-85.468 0-155-69.533-155-155v-70c0-8.284 6.716-15 15-15h70c85.468 0 155 69.533 155 155v70c0 8.284-6.716 15-15 15z" opacity="1" data-original="#ffdd54" class=""></path><path fill="#3170cf" d="M225 240h-70C69.532 240 0 170.467 0 85V15C0 6.716 6.716 0 15 0h70c85.468 0 155 69.533 155 155v70c0 8.284-6.716 15-15 15z" opacity="1" data-original="#8bb9ff" class=""></path><path fill="#4793ff" d="M0 85c0 85.467 69.532 155 155 155h70c4.142 0 7.892-1.679 10.607-4.393L4.393 4.393A14.957 14.957 0 0 0 0 15z" opacity="1" data-original="#4793ff" class=""></path><path fill="#ffb454" d="M272 357c0 85.467 69.532 155 155 155h70c4.142 0 7.892-1.679 10.607-4.393L276.393 276.393A14.957 14.957 0 0 0 272 287z" opacity="1" data-original="#ffb454" class=""></path></g></svg>